<svg xmlns:dc="http://purl.org/dc/elements/1.1/" xmlns:cc="http://creativecommons.org/ns#" xmlns:rdf="http://www.w3.org/1999/02/22-rdf-syntax-ns#" xmlns:svg="http://www.w3.org/2000/svg" xmlns="http://www.w3.org/2000/svg" xmlns:xlink="http://www.w3.org/1999/xlink" id="svg572750" viewBox="0 0 1024 768" height="768px" width="1024px" version="1.1">
  <metadata id="metadata572756">
    <rdf:rdf>
      <cc:work rdf:about="">
        <dc:format>image/svg+xml</dc:format>
        <dc:type rdf:resource="http://purl.org/dc/dcmitype/StillImage"></dc:type>
      </cc:work>
    </rdf:rdf>
  </metadata>
  <defs id="defs572754"></defs>
  <linearGradient spreadMethod="pad" y2="30%" x2="-10%" y1="120%" x1="30%" id="3d_gradient2-logo-5cc1ccd0-5e4f-4cac-9aca-77b109b4c7c6">
    <stop id="stop572731" stop-opacity="1" stop-color="#ffffff" offset="0%"></stop>
    <stop id="stop572733" stop-opacity="1" stop-color="#000000" offset="100%"></stop>
  </linearGradient>
  <linearGradient gradientTransform="rotate(-30)" spreadMethod="pad" y2="30%" x2="-10%" y1="120%" x1="30%" id="3d_gradient3-logo-5cc1ccd0-5e4f-4cac-9aca-77b109b4c7c6">
    <stop id="stop572736" stop-opacity="1" stop-color="#ffffff" offset="0%"></stop>
    <stop id="stop572738" stop-opacity="1" stop-color="#cccccc" offset="50%"></stop>
    <stop id="stop572740" stop-opacity="1" stop-color="#000000" offset="100%"></stop>
  </linearGradient>
  <g id="logo-group">
    <image xlink:href="" id="container" x="272" y="144" width="480" height="480" style="display: none;" transform="translate(0 0)"></image>
    <g id="logo-center" transform="translate(137.58858399999997 0)">
      <image xlink:href="" id="icon_container" x="0" y="0" style="display: none;"></image>
      <g id="slogan" style="font-style:normal;font-weight:700;font-size:32px;line-height:1;font-family:'Brandmark1 Bold Color';font-variant-ligatures:none;text-align:center;text-anchor:middle" transform="translate(0 0)"></g>
      <g id="title" style="font-style:normal;font-weight:700;font-size:72px;line-height:1;font-family:'Brandmark1 Bold Color';font-variant-ligatures:normal;text-align:center;text-anchor:middle" transform="translate(0 0)">
        <g id="path572759" aria-label="R" transform="translate(0 315.83439999999996) translate(50 28.90400000000001) scale(1.4) translate(-283.64412 53.64)"> <path class="c1" d="M121.90405,128.08252h-13.65918l-13.37109-19.27637V97.83984h2.16016 c3.40527,0,5.9541-0.74902,7.56738-2.23242c1.38281-1.27441,2.08105-3.11084,2.08105-5.47266 c0-2.4624-0.71973-4.33447-2.13867-5.55859c-1.4541-1.26025-3.75879-1.92969-6.64648-1.92969h-8.49609v45.43604H78.09595V71.91748 h20.66553c3.16113,0,6.0127,0.45361,8.48926,1.34619c2.44141,0.88574,4.5293,2.21094,6.20703,3.93164 c3.10352,3.18994,4.74512,7.71191,4.74512,13.0835c0,4.81738-1.33203,8.79932-3.95996,11.83789 c-1.8291,2.10986-4.24121,3.72266-7.2002,4.81006L121.90405,128.08252z" transform="translate(205.54817 -125.55748)" stroke-width="0" stroke-linejoin="miter" stroke-miterlimit="2" fill="#a8a2a2" stroke="#a8a2a2"></path> </g>
        <g id="path572761" aria-label="A" transform="translate(0 315.83439999999996) translate(106.80868199999999 28.90400000000001) scale(1.4) translate(-324.22175 53.64)"> <polygon class="c1" points="104.82788,71.91748 95.08569,71.91748 73.80786,128.08252 85.77515,128.08252 99.93921,89.14844 114.22534,128.08252 126.19214,128.08252 " transform="translate(250.41389 -125.55748)" stroke-width="0" stroke-linejoin="miter" stroke-miterlimit="2" fill="#a8a2a2" stroke="#a8a2a2"></polygon> <polygon class="c3" points="100.03819,128.08252 91.09854,114.24284 108.90146,114.24284 " transform="translate(250.41389 -125.55748)" stroke-width="0" stroke-linejoin="miter" stroke-miterlimit="2" fill="#8f8989" stroke="#8f8989"></polygon> </g>
        <g id="path572763" aria-label="B" transform="translate(0 315.83439999999996) translate(182.89063199999998 28.90400000000001) scale(1.4) translate(-378.566 53.64)"> <path class="c1" d="M79.62231,71.91748h19.22607c5.68066,0,10.19531,1.15186,13.42188,3.42041 c1.81445,1.27441,3.21094,2.90186,4.1543,4.83154c0.9502,1.95117,1.43262,4.2124,1.43262,6.7251 c0,3.06055-0.82813,5.94043-2.39746,8.3457c-0.71289,1.09424-1.56934,2.06641-2.55664,2.91602 c1.43359,0.81396,2.69336,1.83643,3.75879,3.03174c2.42676,2.74316,3.71582,6.36523,3.71582,10.47656 c0,4.9043-1.74219,9.01563-5.04785,11.90234c-3.44141,2.99609-8.33105,4.51563-14.53809,4.51563H79.62231V71.91748z M104.4353,92.56152c1.3252-0.94336,1.97363-2.39795,1.97363-4.44287c0-2.60645-1.21777-3.58594-1.61328-3.90283 c-1.33203-1.07275-3.60742-1.6416-6.58105-1.6416l-7.2876,0.05029v11.32666h7.99268 C101.25269,93.95117,103.16089,93.46875,104.4353,92.56152z M106.76831,115.71143c1.36133-1.00781,2.0166-2.49805,2.0166-4.55078 c0-2.12402-0.67676-3.68652-2.08105-4.78809c-1.5918-1.24609-4.15527-1.9082-7.42383-1.9082H90.927V117.354h9.28857 C103.0603,117.354,105.32104,116.78467,106.76831,115.71143z" transform="translate(298.94369 -125.55748)" stroke-width="0" stroke-linejoin="miter" stroke-miterlimit="2" fill="#a8a2a2" stroke="#a8a2a2"></path> </g>
        <g id="path572765" aria-label="B" transform="translate(0 315.83439999999996) translate(246.87499999999997 28.90400000000001) scale(1.4) translate(-424.26912 53.64)"> <path class="c1" d="M79.62231,71.91748h19.22607c5.68066,0,10.19531,1.15186,13.42188,3.42041 c1.81445,1.27441,3.21094,2.90186,4.1543,4.83154c0.9502,1.95117,1.43262,4.2124,1.43262,6.7251 c0,3.06055-0.82813,5.94043-2.39746,8.3457c-0.71289,1.09424-1.56934,2.06641-2.55664,2.91602 c1.43359,0.81396,2.69336,1.83643,3.75879,3.03174c2.42676,2.74316,3.71582,6.36523,3.71582,10.47656 c0,4.9043-1.74219,9.01563-5.04785,11.90234c-3.44141,2.99609-8.33105,4.51563-14.53809,4.51563H79.62231V71.91748z M104.4353,92.56152c1.3252-0.94336,1.97363-2.39795,1.97363-4.44287c0-2.60645-1.21777-3.58594-1.61328-3.90283 c-1.33203-1.07275-3.60742-1.6416-6.58105-1.6416l-7.2876,0.05029v11.32666h7.99268 C101.25269,93.95117,103.16089,93.46875,104.4353,92.56152z M106.76831,115.71143c1.36133-1.00781,2.0166-2.49805,2.0166-4.55078 c0-2.12402-0.67676-3.68652-2.08105-4.78809c-1.5918-1.24609-4.15527-1.9082-7.42383-1.9082H90.927V117.354h9.28857 C103.0603,117.354,105.32104,116.78467,106.76831,115.71143z" transform="translate(344.64681 -125.55748)" stroke-width="0" stroke-linejoin="miter" stroke-miterlimit="2" fill="#a8a2a2" stroke="#a8a2a2"></path> </g>
        <g id="path572767" aria-label="I" transform="translate(0 315.83439999999996) translate(311.363382 28.90400000000001) scale(1.4) translate(-470.33225 53.64)"> <path class="c1" d="M94.34741,75.51758l11.30518-3.6001v56.16504H94.34741V75.51758z" transform="translate(375.98484 -125.55748)" stroke-width="0" stroke-linejoin="miter" stroke-miterlimit="2" fill="#a8a2a2" stroke="#a8a2a2"></path> </g>
        <g id="path572769" aria-label="T" transform="translate(0 315.83439999999996) translate(332.575482 28.90400000000001) scale(1.4) translate(-485.48375 53.64)"> <path class="c1" d="M94.23975,82.64648H78.97412v-10.729h42.05176v10.729h-15.48145v45.43604H94.23975V82.64648z" transform="translate(406.50963 -125.55748)" stroke-width="0" stroke-linejoin="miter" stroke-miterlimit="2" fill="#a8a2a2" stroke="#a8a2a2"></path> </g>
        <g id="path572771" aria-label="H" transform="translate(0 315.83439999999996) translate(396.106264 28.90400000000001) scale(1.4) translate(-530.86288 53.64)"> <path class="c1" d="M110.83716,106.62451H89.16284v21.45801H77.85815V71.91748h11.30469v23.97803h21.67432V71.91748h11.30469 v56.16504h-11.30469V106.62451z" transform="translate(453.00473 -125.55748)" stroke-width="0" stroke-linejoin="miter" stroke-miterlimit="2" fill="#a8a2a2" stroke="#a8a2a2"></path> </g>
        <g id="path572773" aria-label="O" transform="translate(0 315.83439999999996) translate(465.22513200000003 28.400000000000006) scale(1.4) translate(-580.2335 54)"> <path class="c1" d="M88.93994,126.17456c-3.38477-1.43311-6.42285-3.47803-9.02979-6.08447 c-2.60645-2.60693-4.65137-5.64551-6.08447-9.02979c-1.4834-3.50684-2.23242-7.22949-2.23242-11.06006 s0.74902-7.55371,2.23242-11.06006c1.43311-3.38428,3.47803-6.42334,6.08447-9.02979 c2.60693-2.60645,5.64502-4.65137,9.02979-6.08447c3.50684-1.4834,7.22949-2.23242,11.05957-2.23242 c3.83105,0,7.55371,0.74902,11.06055,2.23242c3.38477,1.43311,6.42285,3.47803,9.0293,6.08447 c2.60742,2.60645,4.65234,5.64551,6.08496,9.02979c1.4834,3.50635,2.23242,7.22949,2.23242,11.06006 s-0.74902,7.55322-2.23242,11.06006c-1.43262,3.38428-3.47754,6.42285-6.08496,9.02979 c-2.60645,2.60645-5.64453,4.65137-9.0293,6.08447c-3.50684,1.4834-7.22949,2.23193-11.06055,2.23193 C96.16943,128.40649,92.44678,127.65796,88.93994,126.17456z M87.90283,87.9104c-3.2334,3.23291-5.01172,7.52441-5.01172,12.09717 c0,4.57227,1.77832,8.86377,5.01172,12.09668c3.2334,3.2334,7.52441,5.01172,12.09668,5.01172 c4.57324,0,8.86426-1.77832,12.09766-5.01172c3.23242-3.23291,5.01172-7.52441,5.01172-12.09668 c0-4.57275-1.7793-8.86426-5.01172-12.09717c-3.2334-3.23291-7.53223-5.01172-12.09766-5.01172 C95.43506,82.89868,91.13623,84.67749,87.90283,87.9104z" transform="translate(508.64024 -125.5935)" stroke-width="0" stroke-linejoin="miter" stroke-miterlimit="2" fill="#a8a2a2" stroke="#a8a2a2"></path> </g>
        <g id="path572775" aria-label="O" transform="translate(0 315.83439999999996) translate(548.3063820000001 28.400000000000006) scale(1.4) translate(-639.57725 54)"> <path class="c1" d="M88.93994,126.17456c-3.38477-1.43311-6.42285-3.47803-9.02979-6.08447 c-2.60645-2.60693-4.65137-5.64551-6.08447-9.02979c-1.4834-3.50684-2.23242-7.22949-2.23242-11.06006 s0.74902-7.55371,2.23242-11.06006c1.43311-3.38428,3.47803-6.42334,6.08447-9.02979 c2.60693-2.60645,5.64502-4.65137,9.02979-6.08447c3.50684-1.4834,7.22949-2.23242,11.05957-2.23242 c3.83105,0,7.55371,0.74902,11.06055,2.23242c3.38477,1.43311,6.42285,3.47803,9.0293,6.08447 c2.60742,2.60645,4.65234,5.64551,6.08496,9.02979c1.4834,3.50635,2.23242,7.22949,2.23242,11.06006 s-0.74902,7.55322-2.23242,11.06006c-1.43262,3.38428-3.47754,6.42285-6.08496,9.02979 c-2.60645,2.60645-5.64453,4.65137-9.0293,6.08447c-3.50684,1.4834-7.22949,2.23193-11.06055,2.23193 C96.16943,128.40649,92.44678,127.65796,88.93994,126.17456z M87.90283,87.9104c-3.2334,3.23291-5.01172,7.52441-5.01172,12.09717 c0,4.57227,1.77832,8.86377,5.01172,12.09668c3.2334,3.2334,7.52441,5.01172,12.09668,5.01172 c4.57324,0,8.86426-1.77832,12.09766-5.01172c3.23242-3.23291,5.01172-7.52441,5.01172-12.09668 c0-4.57275-1.7793-8.86426-5.01172-12.09717c-3.2334-3.23291-7.53223-5.01172-12.09766-5.01172 C95.43506,82.89868,91.13623,84.67749,87.90283,87.9104z" transform="translate(567.98399 -125.5935)" stroke-width="0" stroke-linejoin="miter" stroke-miterlimit="2" fill="#a8a2a2" stroke="#a8a2a2"></path> </g>
        <g id="path572777" aria-label="K" transform="translate(0 315.83439999999996) translate(634.9156320000001 28.90400000000001) scale(1.4) translate(-701.441 53.64)"> <polygon class="c1" points="108.10376,71.91748 88.48218,95.62207 88.48218,71.91748 77.17749,71.91748 77.17749,128.08252 88.48218,128.08252 88.48218,112.30518 122.80005,71.91748 " transform="translate(624.26351 -125.55748)" stroke-width="0" stroke-linejoin="miter" stroke-miterlimit="2" fill="#a8a2a2" stroke="#a8a2a2"></polygon> <polygon class="c3" points="112.71143,114.24286 98.67279,114.24286 108.73071,128.08252 122.82251,128.08252 " transform="translate(624.26351 -125.55748)" stroke-width="0" stroke-linejoin="miter" stroke-miterlimit="2" fill="#8f8989" stroke="#8f8989"></polygon> </g>
                </g>
      <image xlink:href="" id="icon" x="0" y="0" style="display: none;"></image>
    </g>
  </g>
</svg>